{"asset":{"version":"2.0","generator":"VECTARY"},"nodes":[{"translation":[-0.1854476501941681,0,0],"scale":[0.001,0.001,0.001],"rotation":[-0.7071067811865475,0,0,0.7071067811865476],"name":"3D Text - n","mesh":0},{"translation":[-0.1545980408191681,0,0],"scale":[0.001,0.001,0.001],"rotation":[-0.7071067811865475,0,0,0.7071067811865476],"name":"3D Text - a","mesh":1},{"translation":[-0.1228475525379181,0,0],"scale":[0.001,0.001,0.001],"rotation":[-0.7071067811865475,0,0,0.7071067811865476],"name":"3D Text - t","mesh":2},{"translation":[-0.10214931035041809,0,0],"scale":[0.001,0.001,0.001],"rotation":[-0.7071067811865475,0,0,0.7071067811865476],"name":"3D Text - h","mesh":3},{"translation":[-0.07129970097541809,0,0],"scale":[0.001,0.001,0.001],"rotation":[-0.7071067811865475,0,0,0.7071067811865476],"name":"3D Text - e","mesh":4},{"translation":[-0.04225184941291809,0,0],"scale":[0.001,0.001,0.001],"rotation":[-0.7071067811865475,0,0,0.7071067811865476],"name":"3D Text - n","mesh":5},{"translation":[-0.011402240037918092,0,0],"scale":[0.001,0.001,0.001],"rotation":[-0.7071067811865475,0,0,0.7071067811865476],"name":"3D Text - a","mesh":6},{"translation":[0.02034824824333191,0,0],"scale":[0.001,0.001,0.001],"rotation":[-0.7071067811865475,0,0,0.7071067811865476],"name":"3D Text - e","mesh":7},{"translation":[0.04939609980583191,0,0],"scale":[0.001,0.001,0.001],"rotation":[-0.7071067811865475,0,0,0.7071067811865476],"name":"3D Text - l","mesh":8},{"translation":[0.06301914668083192,0,0],"scale":[0.001,0.001,0.001],"rotation":[-0.7071067811865475,0,0,0.7071067811865476],"name":"3D Text - .","mesh":9},{"translation":[0.07563145136833191,0,0],"scale":[0.001,0.001,0.001],"rotation":[-0.7071067811865475,0,0,0.7071067811865476],"name":"3D Text - c","mesh":10},{"translation":[0.10344883418083191,0,0],"scale":[0.001,0.001,0.001],"rotation":[-0.7071067811865475,0,0,0.7071067811865476],"name":"3D Text - o","mesh":11},{"translation":[0.1349356505870819,0,0],"scale":[0.001,0.001,0.001],"rotation":[-0.7071067811865475,0,0,0.7071067811865476],"name":"3D Text - m","mesh":12}],"materials":[{"pbrMetallicRoughness":{"baseColorFactor":[0.00455975492252602,0.348864834082879,0.25902733248960613,1],"metallicFactor":0,"roughnessFactor":0.2},"name":"Distant Valley 1","emissiveFactor":[0,0,0],"extensions":{},"alphaMode":"OPAQUE","doubleSided":false}],"meshes":[{"primitives":[{"mode":4,"attributes":{"POSITION":1,"NORMAL":2,"TEXCOORD_0":3},"material":0,"indices":0}]},{"primitives":[{"mode":4,"attributes":{"POSITION":5,"NORMAL":6,"TEXCOORD_0":7},"material":0,"indices":4}]},{"primitives":[{"mode":4,"attributes":{"POSITION":9,"NORMAL":10,"TEXCOORD_0":11},"material":0,"indices":8}]},{"primitives":[{"mode":4,"attributes":{"POSITION":13,"NORMAL":14,"TEXCOORD_0":15},"material":0,"indices":12}]},{"primitives":[{"mode":4,"attributes":{"POSITION":17,"NORMAL":18,"TEXCOORD_0":19},"material":0,"indices":16}]},{"primitives":[{"mode":4,"attributes":{"POSITION":1,"NORMAL":2,"TEXCOORD_0":3},"material":0,"indices":0}]},{"primitives":[{"mode":4,"attributes":{"POSITION":5,"NORMAL":6,"TEXCOORD_0":7},"material":0,"indices":4}]},{"primitives":[{"mode":4,"attributes":{"POSITION":17,"NORMAL":18,"TEXCOORD_0":19},"material":0,"indices":16}]},{"primitives":[{"mode":4,"attributes":{"POSITION":21,"NORMAL":22,"TEXCOORD_0":23},"material":0,"indices":20}]},{"primitives":[{"mode":4,"attributes":{"POSITION":25,"NORMAL":26,"TEXCOORD_0":27},"material":0,"indices":24}]},{"primitives":[{"mode":4,"attributes":{"POSITION":29,"NORMAL":30,"TEXCOORD_0":31},"material":0,"indices":28}]},{"primitives":[{"mode":4,"attributes":{"POSITION":33,"NORMAL":34,"TEXCOORD_0":35},"material":0,"indices":32}]},{"primitives":[{"mode":4,"attributes":{"POSITION":37,"NORMAL":38,"TEXCOORD_0":39},"material":0,"indices":36}]}],"accessors":[{"bufferView":0,"byteOffset":0,"componentType":5125,"count":1860,"type":"SCALAR"},{"bufferView":1,"byteOffset":0,"componentType":5126,"count":1242,"max":[32.275001525878906,1.7685124672757284e-15,28.881999969482422],"min":[3.441999912261963,-15,-6.00600004196167],"type":"VEC3"},{"bufferView":2,"byteOffset":0,"componentType":5126,"count":1242,"type":"VEC3"},{"bufferView":3,"byteOffset":0,"componentType":5126,"count":1242,"type":"VEC2"},{"bufferView":4,"byteOffset":0,"componentType":5125,"count":2340,"type":"SCALAR"},{"bufferView":5,"byteOffset":0,"componentType":5126,"count":1560,"max":[31.836000442504883,1.7685124672757284e-15,28.881999969482422],"min":[1.8550000190734863,-15,-0.5619999766349792],"type":"VEC3"},{"bufferView":6,"byteOffset":0,"componentType":5126,"count":1560,"type":"VEC3"},{"bufferView":7,"byteOffset":0,"componentType":5126,"count":1560,"type":"VEC2"},{"bufferView":8,"byteOffset":0,"componentType":5125,"count":132,"type":"SCALAR"},{"bufferView":9,"byteOffset":0,"componentType":5126,"count":76,"max":[22.60700035095215,2.3619763608905605e-15,38.57400131225586],"min":[0.6589999794960022,-15,0],"type":"VEC3"},{"bufferView":10,"byteOffset":0,"componentType":5126,"count":76,"type":"VEC3"},{"bufferView":11,"byteOffset":0,"componentType":5126,"count":76,"type":"VEC2"},{"bufferView":12,"byteOffset":0,"componentType":5125,"count":1740,"type":"SCALAR"},{"bufferView":13,"byteOffset":0,"componentType":5126,"count":1162,"max":[32.275001525878906,2.3619763608905605e-15,38.57400131225586],"min":[3.441999912261963,-15,-6.00600004196167],"type":"VEC3"},{"bufferView":14,"byteOffset":0,"componentType":5126,"count":1162,"type":"VEC3"},{"bufferView":15,"byteOffset":0,"componentType":5126,"count":1162,"type":"VEC2"},{"bufferView":16,"byteOffset":0,"componentType":5125,"count":3132,"type":"SCALAR"},{"bufferView":17,"byteOffset":0,"componentType":5126,"count":2080,"max":[30.56599998474121,1.7685124672757284e-15,28.881999969482422],"min":[1.8070000410079956,-15,-0.5619999766349792],"type":"VEC3"},{"bufferView":18,"byteOffset":0,"componentType":5126,"count":2080,"type":"VEC3"},{"bufferView":19,"byteOffset":0,"componentType":5126,"count":2080,"type":"VEC2"},{"bufferView":20,"byteOffset":0,"componentType":5125,"count":48,"type":"SCALAR"},{"bufferView":21,"byteOffset":0,"componentType":5126,"count":34,"max":[11.694000244140625,2.5219764377039247e-15,41.1870002746582],"min":[3.441999912261963,-15,0],"type":"VEC3"},{"bufferView":22,"byteOffset":0,"componentType":5126,"count":34,"type":"VEC3"},{"bufferView":23,"byteOffset":0,"componentType":5126,"count":34,"type":"VEC2"},{"bufferView":24,"byteOffset":0,"componentType":5125,"count":948,"type":"SCALAR"},{"bufferView":25,"byteOffset":0,"componentType":5126,"count":626,"max":[11.449999809265137,4.962880916806417e-16,8.104999542236328],"min":[2.562999963760376,-15,-0.8059999942779541],"type":"VEC3"},{"bufferView":26,"byteOffset":0,"componentType":5126,"count":626,"type":"VEC3"},{"bufferView":27,"byteOffset":0,"componentType":5126,"count":626,"type":"VEC2"},{"bufferView":28,"byteOffset":0,"componentType":5125,"count":2052,"type":"SCALAR"},{"bufferView":29,"byteOffset":0,"componentType":5126,"count":1370,"max":[29.468000411987305,1.7685124672757284e-15,28.881999969482422],"min":[1.8070000410079956,-15,-0.5619999766349792],"type":"VEC3"},{"bufferView":30,"byteOffset":0,"componentType":5126,"count":1370,"type":"VEC3"},{"bufferView":31,"byteOffset":0,"componentType":5126,"count":1370,"type":"VEC2"},{"bufferView":32,"byteOffset":0,"componentType":5125,"count":2880,"type":"SCALAR"},{"bufferView":33,"byteOffset":0,"componentType":5126,"count":1920,"max":[33.22800064086914,1.7685124672757284e-15,28.881999969482422],"min":[1.7580000162124634,-15,-0.5619999766349792],"type":"VEC3"},{"bufferView":34,"byteOffset":0,"componentType":5126,"count":1920,"type":"VEC3"},{"bufferView":35,"byteOffset":0,"componentType":5126,"count":1920,"type":"VEC2"},{"bufferView":36,"byteOffset":0,"componentType":5125,"count":2856,"type":"SCALAR"},{"bufferView":37,"byteOffset":0,"componentType":5126,"count":1906,"max":[47.06999969482422,1.7685124672757284e-15,28.881999969482422],"min":[3.441999912261963,-15,-6.00600004196167],"type":"VEC3"},{"bufferView":38,"byteOffset":0,"componentType":5126,"count":1906,"type":"VEC3"},{"bufferView":39,"byteOffset":0,"componentType":5126,"count":1906,"type":"VEC2"}],"bufferViews":[{"buffer":0,"byteOffset":0,"byteLength":7440,"target":34963},{"buffer":0,"byteOffset":7440,"byteLength":14904,"target":34962},{"buffer":0,"byteOffset":22344,"byteLength":14904,"target":34962},{"buffer":0,"byteOffset":37248,"byteLength":9936,"target":34962},{"buffer":0,"byteOffset":47184,"byteLength":9360,"target":34963},{"buffer":0,"byteOffset":56544,"byteLength":18720,"target":34962},{"buffer":0,"byteOffset":75264,"byteLength":18720,"target":34962},{"buffer":0,"byteOffset":93984,"byteLength":12480,"target":34962},{"buffer":0,"byteOffset":106464,"byteLength":528,"target":34963},{"buffer":0,"byteOffset":106992,"byteLength":912,"target":34962},{"buffer":0,"byteOffset":107904,"byteLength":912,"target":34962},{"buffer":0,"byteOffset":108816,"byteLength":608,"target":34962},{"buffer":0,"byteOffset":109424,"byteLength":6960,"target":34963},{"buffer":0,"byteOffset":116384,"byteLength":13944,"target":34962},{"buffer":0,"byteOffset":130328,"byteLength":13944,"target":34962},{"buffer":0,"byteOffset":144272,"byteLength":9296,"target":34962},{"buffer":0,"byteOffset":153568,"byteLength":12528,"target":34963},{"buffer":0,"byteOffset":166096,"byteLength":24960,"target":34962},{"buffer":0,"byteOffset":191056,"byteLength":24960,"target":34962},{"buffer":0,"byteOffset":216016,"byteLength":16640,"target":34962},{"buffer":0,"byteOffset":232656,"byteLength":192,"target":34963},{"buffer":0,"byteOffset":232848,"byteLength":408,"target":34962},{"buffer":0,"byteOffset":233256,"byteLength":408,"target":34962},{"buffer":0,"byteOffset":233664,"byteLength":272,"target":34962},{"buffer":0,"byteOffset":233936,"byteLength":3792,"target":34963},{"buffer":0,"byteOffset":237728,"byteLength":7512,"target":34962},{"buffer":0,"byteOffset":245240,"byteLength":7512,"target":34962},{"buffer":0,"byteOffset":252752,"byteLength":5008,"target":34962},{"buffer":0,"byteOffset":257760,"byteLength":8208,"target":34963},{"buffer":0,"byteOffset":265968,"byteLength":16440,"target":34962},{"buffer":0,"byteOffset":282408,"byteLength":16440,"target":34962},{"buffer":0,"byteOffset":298848,"byteLength":10960,"target":34962},{"buffer":0,"byteOffset":309808,"byteLength":11520,"target":34963},{"buffer":0,"byteOffset":321328,"byteLength":23040,"target":34962},{"buffer":0,"byteOffset":344368,"byteLength":23040,"target":34962},{"buffer":0,"byteOffset":367408,"byteLength":15360,"target":34962},{"buffer":0,"byteOffset":382768,"byteLength":11424,"target":34963},{"buffer":0,"byteOffset":394192,"byteLength":22872,"target":34962},{"buffer":0,"byteOffset":417064,"byteLength":22872,"target":34962},{"buffer":0,"byteOffset":439936,"byteLength":15248,"target":34962}],"scene":0,"scenes":[{"nodes":[0,1,2,3,4,5,6,7,8,9,10,11,12],"name":"nathenaelCom"}],"extensionsUsed":["KHR_texture_transform"],"buffers":[{"byteLength":455184,"uri":"nathenaelCom.bin"}]}