{
  "accessors": [
    {
      "bufferView": 1,
      "componentType": 5126,
      "count": 9959,
      "max": [
        0.5,
        0.4997464418411255,
        0.22726227343082428
      ],
      "min": [
        -0.4999314844608307,
        -0.4995892345905304,
        -0.22726227343082428
      ],
      "type": "VEC3"
    },
    {
      "bufferView": 1,
      "byteOffset": 119508,
      "componentType": 5126,
      "count": 9959,
      "max": [
        0.9997972846031189,
        0.998750627040863,
        0.9999995231628418
      ],
      "min": [
        -0.9997349977493286,
        -0.9985011219978333,
        -0.9999995231628418
      ],
      "type": "VEC3"
    },
    {
      "bufferView": 0,
      "componentType": 5125,
      "count": 59484,
      "type": "SCALAR"
    },
    {
      "bufferView": 1,
      "byteOffset": 239016,
      "componentType": 5126,
      "count": 3326,
      "max": [
        0.5,
        0.5,
        0.18346178531646729
      ],
      "min": [
        -0.4975329339504242,
        -0.5,
        -0.18346178531646729
      ],
      "type": "VEC3"
    },
    {
      "bufferView": 1,
      "byteOffset": 278928,
      "componentType": 5126,
      "count": 3326,
      "max": [
        0.9998837113380432,
        1.0,
        1.0
      ],
      "min": [
        -0.9848820567131042,
        -0.993511974811554,
        -1.0
      ],
      "type": "VEC3"
    },
    {
      "bufferView": 0,
      "byteOffset": 237936,
      "componentType": 5125,
      "count": 19932,
      "type": "SCALAR"
    },
    {
      "bufferView": 1,
      "byteOffset": 318840,
      "componentType": 5126,
      "count": 4218,
      "max": [
        0.497352659702301,
        0.49949297308921814,
        0.15255558490753174
      ],
      "min": [
        -0.5,
        -0.5,
        -0.15255558490753174
      ],
      "type": "VEC3"
    },
    {
      "bufferView": 1,
      "byteOffset": 369456,
      "componentType": 5126,
      "count": 4218,
      "max": [
        0.9106791615486145,
        0.9857573509216309,
        0.9999992847442627
      ],
      "min": [
        -1.0,
        -0.9081141352653503,
        -0.9999992847442627
      ],
      "type": "VEC3"
    },
    {
      "bufferView": 0,
      "byteOffset": 317664,
      "componentType": 5125,
      "count": 25296,
      "type": "SCALAR"
    },
    {
      "bufferView": 1,
      "byteOffset": 420072,
      "componentType": 5126,
      "count": 991,
      "max": [
        0.49849236011505127,
        0.5,
        0.11589986830949783
      ],
      "min": [
        -0.48888885974884033,
        -0.4959036409854889,
        -0.11589986830949783
      ],
      "type": "VEC3"
    },
    {
      "bufferView": 1,
      "byteOffset": 431964,
      "componentType": 5126,
      "count": 991,
      "max": [
        0.9988619685173035,
        0.9912258386611938,
        0.9999958872795105
      ],
      "min": [
        -0.9168826937675476,
        -0.9812410473823547,
        -0.9999958872795105
      ],
      "type": "VEC3"
    },
    {
      "bufferView": 0,
      "byteOffset": 418848,
      "componentType": 5125,
      "count": 5922,
      "type": "SCALAR"
    },
    {
      "bufferView": 1,
      "byteOffset": 443856,
      "componentType": 5126,
      "count": 806,
      "max": [
        0.4999735951423645,
        0.5,
        0.08592831343412399
      ],
      "min": [
        -0.48997753858566284,
        -0.49656057357788086,
        -0.08592831343412399
      ],
      "type": "VEC3"
    },
    {
      "bufferView": 1,
      "byteOffset": 453528,
      "componentType": 5126,
      "count": 806,
      "max": [
        0.9963361620903015,
        0.8008139133453369,
        0.9999607801437378
      ],
      "min": [
        -0.8040416240692139,
        -0.9891060590744019,
        -0.9999607801437378
      ],
      "type": "VEC3"
    },
    {
      "bufferView": 0,
      "byteOffset": 442536,
      "componentType": 5125,
      "count": 4806,
      "type": "SCALAR"
    },
    {
      "bufferView": 1,
      "byteOffset": 463200,
      "componentType": 5126,
      "count": 1144,
      "max": [
        0.4995875060558319,
        0.5,
        0.14049100875854492
      ],
      "min": [
        -0.4986237585544586,
        -0.4992411136627197,
        -0.14049100875854492
      ],
      "type": "VEC3"
    },
    {
      "bufferView": 1,
      "byteOffset": 476928,
      "componentType": 5126,
      "count": 1144,
      "max": [
        0.9747008681297302,
        0.710143506526947,
        0.999964714050293
      ],
      "min": [
        -0.7365378141403198,
        -0.9948424100875854,
        -0.999964714050293
      ],
      "type": "VEC3"
    },
    {
      "bufferView": 0,
      "byteOffset": 461760,
      "componentType": 5125,
      "count": 6846,
      "type": "SCALAR"
    },
    {
      "bufferView": 1,
      "byteOffset": 490656,
      "componentType": 5126,
      "count": 3782,
      "max": [
        0.5,
        0.4999999701976776,
        0.38750627636909485
      ],
      "min": [
        -0.49902790784835815,
        -0.4999999701976776,
        -0.38750627636909485
      ],
      "type": "VEC3"
    },
    {
      "bufferView": 1,
      "byteOffset": 536040,
      "componentType": 5126,
      "count": 3782,
      "max": [
        1.0,
        0.9877535104751587,
        0.9999239444732666
      ],
      "min": [
        -0.9979432225227356,
        -0.9999999403953552,
        -0.9999239444732666
      ],
      "type": "VEC3"
    },
    {
      "bufferView": 0,
      "byteOffset": 489144,
      "componentType": 5125,
      "count": 22680,
      "type": "SCALAR"
    },
    {
      "bufferView": 1,
      "byteOffset": 581424,
      "componentType": 5126,
      "count": 8188,
      "max": [
        0.4995572566986084,
        0.499024897813797,
        0.33372756838798523
      ],
      "min": [
        -0.5,
        -0.5,
        -0.33372756838798523
      ],
      "type": "VEC3"
    },
    {
      "bufferView": 1,
      "byteOffset": 679680,
      "componentType": 5126,
      "count": 8188,
      "max": [
        0.9977966547012329,
        0.9944613575935364,
        0.9999819993972778
      ],
      "min": [
        -1.0,
        -1.0,
        -0.9999819993972778
      ],
      "type": "VEC3"
    },
    {
      "bufferView": 0,
      "byteOffset": 579864,
      "componentType": 5125,
      "count": 49116,
      "type": "SCALAR"
    },
    {
      "bufferView": 1,
      "byteOffset": 777936,
      "componentType": 5126,
      "count": 3187,
      "max": [
        0.4990884065628052,
        0.5,
        0.35770344734191895
      ],
      "min": [
        -0.4994778335094452,
        -0.5,
        -0.35770344734191895
      ],
      "type": "VEC3"
    },
    {
      "bufferView": 1,
      "byteOffset": 816180,
      "componentType": 5126,
      "count": 3187,
      "max": [
        0.9942938685417175,
        0.9597887992858887,
        0.9999301433563232
      ],
      "min": [
        -0.9993638396263123,
        -0.9990444779396057,
        -0.9999301433563232
      ],
      "type": "VEC3"
    },
    {
      "bufferView": 0,
      "byteOffset": 776328,
      "componentType": 5125,
      "count": 19110,
      "type": "SCALAR"
    },
    {
      "bufferView": 1,
      "byteOffset": 854424,
      "componentType": 5126,
      "count": 8413,
      "max": [
        0.499800443649292,
        0.4999999701976776,
        0.4055548906326294
      ],
      "min": [
        -0.5,
        -0.4999999701976776,
        -0.4055548906326294
      ],
      "type": "VEC3"
    },
    {
      "bufferView": 1,
      "byteOffset": 955380,
      "componentType": 5126,
      "count": 8413,
      "max": [
        0.9955708980560303,
        0.9999999403953552,
        0.9999998807907104
      ],
      "min": [
        -0.9987770318984985,
        -0.9962068200111389,
        -0.9999998807907104
      ],
      "type": "VEC3"
    },
    {
      "bufferView": 0,
      "byteOffset": 852768,
      "componentType": 5125,
      "count": 50466,
      "type": "SCALAR"
    },
    {
      "bufferView": 1,
      "byteOffset": 1056336,
      "componentType": 5126,
      "count": 2945,
      "max": [
        0.4975408911705017,
        0.4978371858596802,
        0.2268933653831482
      ],
      "min": [
        -0.4996032118797302,
        -0.4999999701976776,
        -0.2268933653831482
      ],
      "type": "VEC3"
    },
    {
      "bufferView": 1,
      "byteOffset": 1091676,
      "componentType": 5126,
      "count": 2945,
      "max": [
        0.9937999844551086,
        0.9681150317192078,
        0.9999869465827942
      ],
      "min": [
        -0.9965130090713501,
        -0.9999999403953552,
        -0.9999869465827942
      ],
      "type": "VEC3"
    },
    {
      "bufferView": 0,
      "byteOffset": 1054632,
      "componentType": 5125,
      "count": 17652,
      "type": "SCALAR"
    }
  ],
  "asset": {
    "extras": {
      "author": "aniandronic (https://sketchfab.com/aniandronic)",
      "license": "CC-BY-4.0 (http://creativecommons.org/licenses/by/4.0/)",
      "source": "https://sketchfab.com/3d-models/n-alphabet-lore-b73978283c0348f4a96ccd67dc223934",
      "title": "N (Alphabet Lore)"
    },
    "generator": "Sketchfab-14.33.0",
    "version": "2.0"
  },
  "bufferViews": [
    {
      "buffer": 0,
      "byteLength": 1125240,
      "name": "floatBufferViews",
      "target": 34963
    },
    {
      "buffer": 0,
      "byteLength": 1127016,
      "byteOffset": 1125240,
      "byteStride": 12,
      "name": "floatBufferViews",
      "target": 34962
    }
  ],
  "buffers": [
    {
      "byteLength": 2252256,
      "uri": "scene.bin"
    }
  ],
  "materials": [
    {
      "doubleSided": true,
      "name": "Material_44",
      "pbrMetallicRoughness": {
        "baseColorFactor": [
          0.909804,
          0.533333,
          0.321569,
          1.0
        ],
        "metallicFactor": 0.0
      }
    },
    {
      "doubleSided": true,
      "name": "Material_70",
      "pbrMetallicRoughness": {
        "baseColorFactor": [
          0.87451,
          0.290196,
          0.254902,
          1.0
        ],
        "metallicFactor": 0.0
      }
    },
    {
      "doubleSided": true,
      "name": "Material_58",
      "pbrMetallicRoughness": {
        "metallicFactor": 0.0
      }
    },
    {
      "doubleSided": true,
      "name": "Material_92",
      "pbrMetallicRoughness": {
        "baseColorFactor": [
          0.0,
          0.0,
          0.0,
          1.0
        ],
        "metallicFactor": 0.0,
        "roughnessFactor": 0.9691240447588256
      }
    },
    {
      "doubleSided": true,
      "name": "Material_88",
      "pbrMetallicRoughness": {
        "baseColorFactor": [
          0.0,
          0.0,
          0.0,
          1.0
        ],
        "metallicFactor": 0.0,
        "roughnessFactor": 0.9691240447588256
      }
    },
    {
      "doubleSided": true,
      "name": "Material_84",
      "pbrMetallicRoughness": {
        "baseColorFactor": [
          0.0,
          0.0,
          0.0,
          1.0
        ],
        "metallicFactor": 0.0,
        "roughnessFactor": 0.9691240447588256
      }
    },
    {
      "doubleSided": true,
      "name": "Material_62",
      "pbrMetallicRoughness": {
        "baseColorFactor": [
          0.0,
          0.0,
          0.0,
          1.0
        ],
        "metallicFactor": 0.0
      }
    },
    {
      "doubleSided": true,
      "name": "Material_54",
      "pbrMetallicRoughness": {
        "metallicFactor": 0.0
      }
    },
    {
      "doubleSided": true,
      "name": "Material_66",
      "pbrMetallicRoughness": {
        "baseColorFactor": [
          0.0,
          0.0,
          0.0,
          1.0
        ],
        "metallicFactor": 0.0
      }
    },
    {
      "doubleSided": true,
      "name": "Material_50",
      "pbrMetallicRoughness": {
        "metallicFactor": 0.0
      }
    },
    {
      "doubleSided": true,
      "name": "Material_74",
      "pbrMetallicRoughness": {
        "baseColorFactor": [
          0.87451,
          0.290196,
          0.254902,
          1.0
        ],
        "metallicFactor": 0.0
      }
    }
  ],
  "meshes": [
    {
      "name": "root_Material_44_0",
      "primitives": [
        {
          "attributes": {
            "NORMAL": 1,
            "POSITION": 0
          },
          "indices": 2,
          "material": 0,
          "mode": 4
        }
      ]
    },
    {
      "name": "root_Material_70_0",
      "primitives": [
        {
          "attributes": {
            "NORMAL": 4,
            "POSITION": 3
          },
          "indices": 5,
          "material": 1,
          "mode": 4
        }
      ]
    },
    {
      "name": "root_Material_58_0",
      "primitives": [
        {
          "attributes": {
            "NORMAL": 7,
            "POSITION": 6
          },
          "indices": 8,
          "material": 2,
          "mode": 4
        }
      ]
    },
    {
      "name": "root_Material_92_0",
      "primitives": [
        {
          "attributes": {
            "NORMAL": 10,
            "POSITION": 9
          },
          "indices": 11,
          "material": 3,
          "mode": 4
        }
      ]
    },
    {
      "name": "root_Material_88_0",
      "primitives": [
        {
          "attributes": {
            "NORMAL": 13,
            "POSITION": 12
          },
          "indices": 14,
          "material": 4,
          "mode": 4
        }
      ]
    },
    {
      "name": "root_Material_84_0",
      "primitives": [
        {
          "attributes": {
            "NORMAL": 16,
            "POSITION": 15
          },
          "indices": 17,
          "material": 5,
          "mode": 4
        }
      ]
    },
    {
      "name": "root_Material_62_0",
      "primitives": [
        {
          "attributes": {
            "NORMAL": 19,
            "POSITION": 18
          },
          "indices": 20,
          "material": 6,
          "mode": 4
        }
      ]
    },
    {
      "name": "root_Material_54_0",
      "primitives": [
        {
          "attributes": {
            "NORMAL": 22,
            "POSITION": 21
          },
          "indices": 23,
          "material": 7,
          "mode": 4
        }
      ]
    },
    {
      "name": "root_Material_66_0",
      "primitives": [
        {
          "attributes": {
            "NORMAL": 25,
            "POSITION": 24
          },
          "indices": 26,
          "material": 8,
          "mode": 4
        }
      ]
    },
    {
      "name": "root_Material_50_0",
      "primitives": [
        {
          "attributes": {
            "NORMAL": 28,
            "POSITION": 27
          },
          "indices": 29,
          "material": 9,
          "mode": 4
        }
      ]
    },
    {
      "name": "root_Material_74_0",
      "primitives": [
        {
          "attributes": {
            "NORMAL": 31,
            "POSITION": 30
          },
          "indices": 32,
          "material": 10,
          "mode": 4
        }
      ]
    }
  ],
  "nodes": [
    {
      "children": [
        1
      ],
      "matrix": [
        1.0,
        0.0,
        0.0,
        0.0,
        0.0,
        2.220446049250313e-16,
        -1.0,
        0.0,
        0.0,
        1.0,
        2.220446049250313e-16,
        0.0,
        0.0,
        0.0,
        0.0,
        1.0
      ],
      "name": "Sketchfab_model"
    },
    {
      "children": [
        2
      ],
      "matrix": [
        0.009999999776482582,
        0.0,
        0.0,
        0.0,
        0.0,
        0.0,
        0.009999999776482582,
        0.0,
        0.0,
        -0.009999999776482582,
        0.0,
        0.0,
        0.0,
        0.0,
        0.0,
        1.0
      ],
      "name": "b2c0040c39e14dd4936df814b63ae845.fbx"
    },
    {
      "children": [
        3
      ],
      "name": "RootNode"
    },
    {
      "children": [
        4,
        7,
        10,
        13,
        16,
        19,
        22,
        25,
        28,
        31,
        34
      ],
      "name": "root"
    },
    {
      "children": [
        5
      ],
      "name": "root"
    },
    {
      "children": [
        6
      ],
      "matrix": [
        0.2417437583208084,
        0.0,
        -0.0,
        0.0,
        0.0,
        0.27224576473236084,
        0.0,
        0.0,
        0.0,
        0.0,
        0.13612288236618042,
        0.0,
        -0.0030652161221951246,
        -0.003814132884144783,
        0.20001204311847687,
        1.0
      ],
      "name": "Object_5"
    },
    {
      "mesh": 0,
      "name": "root_Material_44_0"
    },
    {
      "children": [
        8
      ],
      "name": "root"
    },
    {
      "children": [
        9
      ],
      "matrix": [
        0.0897987112402916,
        0.0,
        -0.0,
        0.0,
        0.0,
        0.02936207875609398,
        0.0,
        0.0,
        0.0,
        0.0,
        0.03426725044846535,
        0.0,
        -0.09314290434122086,
        0.08768164366483688,
        0.23151856660842896,
        1.0
      ],
      "name": "Object_8"
    },
    {
      "mesh": 1,
      "name": "root_Material_70_0"
    },
    {
      "children": [
        11
      ],
      "name": "root"
    },
    {
      "children": [
        12
      ],
      "matrix": [
        0.05333694815635681,
        -0.008825882337987423,
        0.0,
        0.0,
        0.014044353929795087,
        0.08487343800391305,
        0.0,
        0.0,
        -0.0,
        0.0,
        0.043013788759708405,
        0.0,
        -0.050977203994989395,
        0.0022404605988413095,
        0.21880745887756348,
        1.0
      ],
      "name": "Object_11"
    },
    {
      "mesh": 2,
      "name": "root_Material_58_0"
    },
    {
      "children": [
        14
      ],
      "name": "root"
    },
    {
      "children": [
        15
      ],
      "matrix": [
        0.026382479816675186,
        0.0,
        -0.0,
        0.0,
        0.0,
        0.008140373975038528,
        0.0,
        0.0,
        0.0,
        0.0,
        0.012210601940751076,
        0.0,
        -0.049678027629852295,
        -0.003733784891664982,
        0.2262551337480545,
        1.0
      ],
      "name": "Object_14"
    },
    {
      "mesh": 3,
      "name": "root_Material_92_0"
    },
    {
      "children": [
        17
      ],
      "name": "root"
    },
    {
      "children": [
        18
      ],
      "matrix": [
        0.028939910233020782,
        0.0,
        -0.0,
        0.0,
        0.0,
        0.008111345581710339,
        0.0,
        0.0,
        0.0,
        0.0,
        0.012907767668366432,
        0.0,
        -0.05464593693614006,
        0.009163948707282543,
        0.22910304367542267,
        1.0
      ],
      "name": "Object_17"
    },
    {
      "mesh": 4,
      "name": "root_Material_88_0"
    },
    {
      "children": [
        20
      ],
      "name": "root"
    },
    {
      "children": [
        21
      ],
      "matrix": [
        0.03275593742728233,
        0.0,
        -0.0,
        0.0,
        0.0,
        0.01289714127779007,
        0.0,
        0.0,
        0.0,
        0.0,
        0.014060440473258495,
        0.0,
        -0.058220066130161285,
        0.025719208642840385,
        0.22682276368141174,
        1.0
      ],
      "name": "Object_20"
    },
    {
      "mesh": 5,
      "name": "root_Material_84_0"
    },
    {
      "children": [
        23
      ],
      "name": "root"
    },
    {
      "children": [
        24
      ],
      "matrix": [
        0.036540210247039795,
        0.0,
        -0.0,
        0.0,
        0.0,
        0.030469298362731934,
        0.0,
        0.0,
        0.0,
        0.0,
        0.018270105123519897,
        0.0,
        0.08934628963470459,
        0.03389394283294678,
        0.22966456413269043,
        1.0
      ],
      "name": "Object_23"
    },
    {
      "mesh": 6,
      "name": "root_Material_62_0"
    },
    {
      "children": [
        26
      ],
      "name": "root"
    },
    {
      "children": [
        27
      ],
      "matrix": [
        0.07992814481258392,
        0.0,
        -0.0,
        0.0,
        0.0,
        0.05633511766791344,
        0.0,
        0.0,
        0.0,
        0.0,
        0.03996407240629196,
        0.0,
        -0.09053851664066315,
        0.07191705703735352,
        0.22211068868637085,
        1.0
      ],
      "name": "Object_26"
    },
    {
      "mesh": 7,
      "name": "root_Material_54_0"
    },
    {
      "children": [
        29
      ],
      "name": "root"
    },
    {
      "children": [
        30
      ],
      "matrix": [
        0.0426398441195488,
        0.0,
        -0.0,
        0.0,
        0.0,
        0.03823425993323326,
        0.0,
        0.0,
        0.0,
        0.0,
        0.0213199220597744,
        0.0,
        -0.09358890354633331,
        0.06953731179237366,
        0.23085597157478333,
        1.0
      ],
      "name": "Object_29"
    },
    {
      "mesh": 8,
      "name": "root_Material_66_0"
    },
    {
      "children": [
        32
      ],
      "name": "root"
    },
    {
      "children": [
        33
      ],
      "matrix": [
        0.07382850348949432,
        0.0,
        -0.0,
        0.0,
        0.0,
        0.06318281590938568,
        0.0,
        0.0,
        0.0,
        0.0,
        0.03691425174474716,
        0.0,
        0.08839569240808487,
        0.03495555743575096,
        0.21731282770633698,
        1.0
      ],
      "name": "Object_32"
    },
    {
      "mesh": 9,
      "name": "root_Material_50_0"
    },
    {
      "children": [
        35
      ],
      "name": "root"
    },
    {
      "children": [
        36
      ],
      "matrix": [
        0.07533242553472519,
        0.0,
        -0.0,
        0.0,
        0.0,
        0.02891562506556511,
        0.0,
        0.0,
        0.0,
        0.0,
        0.02967814728617668,
        0.0,
        0.08679373562335968,
        0.05435938015580177,
        0.2312767058610916,
        1.0
      ],
      "name": "Object_35"
    },
    {
      "mesh": 10,
      "name": "root_Material_74_0"
    }
  ],
  "scene": 0,
  "scenes": [
    {
      "name": "Sketchfab_Scene",
      "nodes": [
        0
      ]
    }
  ]
}
