{"asset":{"version":"2.0","generator":"VECTARY"},"nodes":[{"translation":[-0.1587373523594066,0.0062733988602786325,8.881784197001253e-19],"scale":[0.001,0.001,0.001],"rotation":[-0.7071067811865475,0,0,0.7071067811865476],"name":"3D Text - c","mesh":0},{"translation":[-0.1309199695469066,0.0062733988602786325,8.881784197001253e-19],"scale":[0.001,0.001,0.001],"rotation":[-0.7071067811865475,0,0,0.7071067811865476],"name":"3D Text - o","mesh":1},{"translation":[-0.09943315314065661,0.0062733988602786325,8.881784197001253e-19],"scale":[0.001,0.001,0.001],"rotation":[-0.7071067811865475,0,0,0.7071067811865476],"name":"3D Text - n","mesh":2},{"translation":[-0.0685835437656566,0.0062733988602786325,8.881784197001253e-19],"scale":[0.001,0.001,0.001],"rotation":[-0.7071067811865475,0,0,0.7071067811865476],"name":"3D Text - s","mesh":3},{"translation":[-0.0420625476719066,0.0062733988602786325,8.881784197001253e-19],"scale":[0.001,0.001,0.001],"rotation":[-0.7071067811865475,0,0,0.7071067811865476],"name":"3D Text - t","mesh":4},{"translation":[-0.021364305484406602,0.0062733988602786325,8.881784197001253e-19],"scale":[0.001,0.001,0.001],"rotation":[-0.7071067811865475,0,0,0.7071067811865476],"name":"3D Text - r","mesh":5},{"translation":[0.0033109874843434,0.0062733988602786325,8.881784197001253e-19],"scale":[0.001,0.001,0.001],"rotation":[-0.7071067811865475,0,0,0.7071067811865476],"name":"3D Text - u","mesh":6},{"translation":[0.0341605968593434,0.0062733988602786325,8.881784197001253e-19],"scale":[0.001,0.001,0.001],"rotation":[-0.7071067811865475,0,0,0.7071067811865476],"name":"3D Text - c","mesh":7},{"translation":[0.0619779796718434,0.0062733988602786325,8.881784197001253e-19],"scale":[0.001,0.001,0.001],"rotation":[-0.7071067811865475,0,0,0.7071067811865476],"name":"3D Text - t","mesh":8},{"translation":[0.0826762218593434,0.0062733988602786325,8.881784197001253e-19],"scale":[0.001,0.001,0.001],"rotation":[-0.7071067811865475,0,0,0.7071067811865476],"name":"3D Text - i","mesh":9},{"translation":[0.09636518670309341,0.0062733988602786325,8.881784197001253e-19],"scale":[0.001,0.001,0.001],"rotation":[-0.7071067811865475,0,0,0.7071067811865476],"name":"3D Text - o","mesh":10},{"translation":[0.12785200310934342,0.0062733988602786325,8.881784197001253e-19],"scale":[0.001,0.001,0.001],"rotation":[-0.7071067811865475,0,0,0.7071067811865476],"name":"3D Text - n","mesh":11},{"translation":[-0.07437093942176545,0.06892595166027862,1.4210854715202004e-17],"scale":[0.001,0.001,0.001],"rotation":[-0.7071067811865475,0,0,0.7071067811865476],"name":"3D Text - u","mesh":12},{"translation":[-0.043521330046765457,0.06892595166027862,1.4210854715202004e-17],"scale":[0.001,0.001,0.001],"rotation":[-0.7071067811865475,0,0,0.7071067811865476],"name":"3D Text - n","mesh":13},{"translation":[-0.012671720671765457,0.06892595166027862,1.4210854715202004e-17],"scale":[0.001,0.001,0.001],"rotation":[-0.7071067811865475,0,0,0.7071067811865476],"name":"3D Text - d","mesh":14},{"translation":[0.019100740265734543,0.06892595166027862,1.4210854715202004e-17],"scale":[0.001,0.001,0.001],"rotation":[-0.7071067811865475,0,0,0.7071067811865476],"name":"3D Text - e","mesh":15},{"translation":[0.04814859182823455,0.06892595166027862,1.4210854715202004e-17],"scale":[0.001,0.001,0.001],"rotation":[-0.7071067811865475,0,0,0.7071067811865476],"name":"3D Text - r","mesh":16}],"materials":[{"pbrMetallicRoughness":{"baseColorFactor":[1,1,1,1],"metallicFactor":0,"roughnessFactor":0.2},"name":"Distant Valley 1","emissiveFactor":[0,0,0],"extensions":{},"alphaMode":"OPAQUE","doubleSided":false}],"meshes":[{"primitives":[{"mode":4,"attributes":{"POSITION":1,"NORMAL":2,"TEXCOORD_0":3},"material":0,"indices":0}]},{"primitives":[{"mode":4,"attributes":{"POSITION":5,"NORMAL":6,"TEXCOORD_0":7},"material":0,"indices":4}]},{"primitives":[{"mode":4,"attributes":{"POSITION":9,"NORMAL":10,"TEXCOORD_0":11},"material":0,"indices":8}]},{"primitives":[{"mode":4,"attributes":{"POSITION":13,"NORMAL":14,"TEXCOORD_0":15},"material":0,"indices":12}]},{"primitives":[{"mode":4,"attributes":{"POSITION":17,"NORMAL":18,"TEXCOORD_0":19},"material":0,"indices":16}]},{"primitives":[{"mode":4,"attributes":{"POSITION":21,"NORMAL":22,"TEXCOORD_0":23},"material":0,"indices":20}]},{"primitives":[{"mode":4,"attributes":{"POSITION":25,"NORMAL":26,"TEXCOORD_0":27},"material":0,"indices":24}]},{"primitives":[{"mode":4,"attributes":{"POSITION":1,"NORMAL":2,"TEXCOORD_0":3},"material":0,"indices":0}]},{"primitives":[{"mode":4,"attributes":{"POSITION":17,"NORMAL":18,"TEXCOORD_0":19},"material":0,"indices":16}]},{"primitives":[{"mode":4,"attributes":{"POSITION":29,"NORMAL":30,"TEXCOORD_0":31},"material":0,"indices":28}]},{"primitives":[{"mode":4,"attributes":{"POSITION":5,"NORMAL":6,"TEXCOORD_0":7},"material":0,"indices":4}]},{"primitives":[{"mode":4,"attributes":{"POSITION":9,"NORMAL":10,"TEXCOORD_0":11},"material":0,"indices":8}]},{"primitives":[{"mode":4,"attributes":{"POSITION":25,"NORMAL":26,"TEXCOORD_0":27},"material":0,"indices":24}]},{"primitives":[{"mode":4,"attributes":{"POSITION":9,"NORMAL":10,"TEXCOORD_0":11},"material":0,"indices":8}]},{"primitives":[{"mode":4,"attributes":{"POSITION":33,"NORMAL":34,"TEXCOORD_0":35},"material":0,"indices":32}]},{"primitives":[{"mode":4,"attributes":{"POSITION":37,"NORMAL":38,"TEXCOORD_0":39},"material":0,"indices":36}]},{"primitives":[{"mode":4,"attributes":{"POSITION":21,"NORMAL":22,"TEXCOORD_0":23},"material":0,"indices":20}]}],"accessors":[{"bufferView":0,"byteOffset":0,"componentType":5125,"count":2052,"type":"SCALAR"},{"bufferView":1,"byteOffset":0,"componentType":5126,"count":1370,"max":[29.468000411987305,1.7685124672757284e-15,28.881999969482422],"min":[1.8070000410079956,-15,-0.5619999766349792],"type":"VEC3"},{"bufferView":2,"byteOffset":0,"componentType":5126,"count":1370,"type":"VEC3"},{"bufferView":3,"byteOffset":0,"componentType":5126,"count":1370,"type":"VEC2"},{"bufferView":4,"byteOffset":0,"componentType":5125,"count":2880,"type":"SCALAR"},{"bufferView":5,"byteOffset":0,"componentType":5126,"count":1920,"max":[33.22800064086914,1.7685124672757284e-15,28.881999969482422],"min":[1.7580000162124634,-15,-0.5619999766349792],"type":"VEC3"},{"bufferView":6,"byteOffset":0,"componentType":5126,"count":1920,"type":"VEC3"},{"bufferView":7,"byteOffset":0,"componentType":5126,"count":1920,"type":"VEC2"},{"bufferView":8,"byteOffset":0,"componentType":5125,"count":1860,"type":"SCALAR"},{"bufferView":9,"byteOffset":0,"componentType":5126,"count":1242,"max":[32.275001525878906,1.7685124672757284e-15,28.881999969482422],"min":[3.441999912261963,-15,-6.00600004196167],"type":"VEC3"},{"bufferView":10,"byteOffset":0,"componentType":5126,"count":1242,"type":"VEC3"},{"bufferView":11,"byteOffset":0,"componentType":5126,"count":1242,"type":"VEC2"},{"bufferView":12,"byteOffset":0,"componentType":5125,"count":3612,"type":"SCALAR"},{"bufferView":13,"byteOffset":0,"componentType":5126,"count":2410,"max":[27.709999084472656,1.7685124672757284e-15,28.881999969482422],"min":[1.659999966621399,-15,-0.5619999766349792],"type":"VEC3"},{"bufferView":14,"byteOffset":0,"componentType":5126,"count":2410,"type":"VEC3"},{"bufferView":15,"byteOffset":0,"componentType":5126,"count":2410,"type":"VEC2"},{"bufferView":16,"byteOffset":0,"componentType":5125,"count":132,"type":"SCALAR"},{"bufferView":17,"byteOffset":0,"componentType":5126,"count":76,"max":[22.60700035095215,2.3619763608905605e-15,38.57400131225586],"min":[0.6589999794960022,-15,0],"type":"VEC3"},{"bufferView":18,"byteOffset":0,"componentType":5126,"count":76,"type":"VEC3"},{"bufferView":19,"byteOffset":0,"componentType":5126,"count":76,"type":"VEC2"},{"bufferView":20,"byteOffset":0,"componentType":5125,"count":1140,"type":"SCALAR"},{"bufferView":21,"byteOffset":0,"componentType":5126,"count":762,"max":[27.41699981689453,1.7685124672757284e-15,28.881999969482422],"min":[3.441999912261963,-15,0],"type":"VEC3"},{"bufferView":22,"byteOffset":0,"componentType":5126,"count":762,"type":"VEC3"},{"bufferView":23,"byteOffset":0,"componentType":5126,"count":762,"type":"VEC2"},{"bufferView":24,"byteOffset":0,"componentType":5125,"count":1740,"type":"SCALAR"},{"bufferView":25,"byteOffset":0,"componentType":5126,"count":1164,"max":[30.834999084472656,1.7266295467702002e-15,28.197999954223633],"min":[2.002000093460083,-15,-0.6589999794960022],"type":"VEC3"},{"bufferView":26,"byteOffset":0,"componentType":5126,"count":1164,"type":"VEC3"},{"bufferView":27,"byteOffset":0,"componentType":5126,"count":1164,"type":"VEC2"},{"bufferView":28,"byteOffset":0,"componentType":5125,"count":984,"type":"SCALAR"},{"bufferView":29,"byteOffset":0,"componentType":5126,"count":658,"max":[12.109000205993652,2.418799777915352e-15,39.50199890136719],"min":[3.1010000705718994,-15,0],"type":"VEC3"},{"bufferView":30,"byteOffset":0,"componentType":5126,"count":658,"type":"VEC3"},{"bufferView":31,"byteOffset":0,"componentType":5126,"count":658,"type":"VEC2"},{"bufferView":32,"byteOffset":0,"componentType":5125,"count":2340,"type":"SCALAR"},{"bufferView":33,"byteOffset":0,"componentType":5126,"count":1562,"max":[31.860000610351562,2.3619763608905605e-15,38.57400131225586],"min":[1.8799999952316284,-15,-0.6589999794960022],"type":"VEC3"},{"bufferView":34,"byteOffset":0,"componentType":5126,"count":1562,"type":"VEC3"},{"bufferView":35,"byteOffset":0,"componentType":5126,"count":1562,"type":"VEC2"},{"bufferView":36,"byteOffset":0,"componentType":5125,"count":3132,"type":"SCALAR"},{"bufferView":37,"byteOffset":0,"componentType":5126,"count":2080,"max":[30.56599998474121,1.7685124672757284e-15,28.881999969482422],"min":[1.8070000410079956,-15,-0.5619999766349792],"type":"VEC3"},{"bufferView":38,"byteOffset":0,"componentType":5126,"count":2080,"type":"VEC3"},{"bufferView":39,"byteOffset":0,"componentType":5126,"count":2080,"type":"VEC2"}],"bufferViews":[{"buffer":0,"byteOffset":0,"byteLength":8208,"target":34963},{"buffer":0,"byteOffset":8208,"byteLength":16440,"target":34962},{"buffer":0,"byteOffset":24648,"byteLength":16440,"target":34962},{"buffer":0,"byteOffset":41088,"byteLength":10960,"target":34962},{"buffer":0,"byteOffset":52048,"byteLength":11520,"target":34963},{"buffer":0,"byteOffset":63568,"byteLength":23040,"target":34962},{"buffer":0,"byteOffset":86608,"byteLength":23040,"target":34962},{"buffer":0,"byteOffset":109648,"byteLength":15360,"target":34962},{"buffer":0,"byteOffset":125008,"byteLength":7440,"target":34963},{"buffer":0,"byteOffset":132448,"byteLength":14904,"target":34962},{"buffer":0,"byteOffset":147352,"byteLength":14904,"target":34962},{"buffer":0,"byteOffset":162256,"byteLength":9936,"target":34962},{"buffer":0,"byteOffset":172192,"byteLength":14448,"target":34963},{"buffer":0,"byteOffset":186640,"byteLength":28920,"target":34962},{"buffer":0,"byteOffset":215560,"byteLength":28920,"target":34962},{"buffer":0,"byteOffset":244480,"byteLength":19280,"target":34962},{"buffer":0,"byteOffset":263760,"byteLength":528,"target":34963},{"buffer":0,"byteOffset":264288,"byteLength":912,"target":34962},{"buffer":0,"byteOffset":265200,"byteLength":912,"target":34962},{"buffer":0,"byteOffset":266112,"byteLength":608,"target":34962},{"buffer":0,"byteOffset":266720,"byteLength":4560,"target":34963},{"buffer":0,"byteOffset":271280,"byteLength":9144,"target":34962},{"buffer":0,"byteOffset":280424,"byteLength":9144,"target":34962},{"buffer":0,"byteOffset":289568,"byteLength":6096,"target":34962},{"buffer":0,"byteOffset":295664,"byteLength":6960,"target":34963},{"buffer":0,"byteOffset":302624,"byteLength":13968,"target":34962},{"buffer":0,"byteOffset":316592,"byteLength":13968,"target":34962},{"buffer":0,"byteOffset":330560,"byteLength":9312,"target":34962},{"buffer":0,"byteOffset":339872,"byteLength":3936,"target":34963},{"buffer":0,"byteOffset":343808,"byteLength":7896,"target":34962},{"buffer":0,"byteOffset":351704,"byteLength":7896,"target":34962},{"buffer":0,"byteOffset":359600,"byteLength":5264,"target":34962},{"buffer":0,"byteOffset":364864,"byteLength":9360,"target":34963},{"buffer":0,"byteOffset":374224,"byteLength":18744,"target":34962},{"buffer":0,"byteOffset":392968,"byteLength":18744,"target":34962},{"buffer":0,"byteOffset":411712,"byteLength":12496,"target":34962},{"buffer":0,"byteOffset":424208,"byteLength":12528,"target":34963},{"buffer":0,"byteOffset":436736,"byteLength":24960,"target":34962},{"buffer":0,"byteOffset":461696,"byteLength":24960,"target":34962},{"buffer":0,"byteOffset":486656,"byteLength":16640,"target":34962}],"scene":0,"scenes":[{"nodes":[0,1,2,3,4,5,6,7,8,9,10,11,12,13,14,15,16],"name":"underConstruction"}],"extensionsUsed":["KHR_texture_transform"],"buffers":[{"byteLength":503296,"uri":"underConstruction.bin"}]}