{"asset":{"version":"2.0","generator":"VECTARY"},"nodes":[{"translation":[-0.022905230462551118,0,0],"scale":[0.001,0.001,0.001],"rotation":[-0.7071067811865475,0,0,0.7071067811865476],"name":"3D Text - d","mesh":0},{"translation":[0.008867230474948883,0,0],"scale":[0.001,0.001,0.001],"rotation":[-0.7071067811865475,0,0,0.7071067811865476],"name":"3D Text - j","mesh":1}],"materials":[{"pbrMetallicRoughness":{"baseColorFactor":[0.00455975492252602,0.348864834082879,0.25902733248960613,1],"metallicFactor":0,"roughnessFactor":0.2},"name":"Distant Valley 1","emissiveFactor":[0,0,0],"extensions":{},"alphaMode":"OPAQUE","doubleSided":false}],"meshes":[{"primitives":[{"mode":4,"attributes":{"POSITION":1,"NORMAL":2,"TEXCOORD_0":3},"material":0,"indices":0}]},{"primitives":[{"mode":4,"attributes":{"POSITION":5,"NORMAL":6,"TEXCOORD_0":7},"material":0,"indices":4}]}],"accessors":[{"bufferView":0,"byteOffset":0,"componentType":5125,"count":2340,"type":"SCALAR"},{"bufferView":1,"byteOffset":0,"componentType":5126,"count":1562,"max":[31.860000610351562,2.3619763608905605e-15,38.57400131225586],"min":[1.8799999952316284,-15,-0.6589999794960022],"type":"VEC3"},{"bufferView":2,"byteOffset":0,"componentType":5126,"count":1562,"type":"VEC3"},{"bufferView":3,"byteOffset":0,"componentType":5126,"count":1562,"type":"VEC2"},{"bufferView":4,"byteOffset":0,"componentType":5125,"count":1464,"type":"SCALAR"},{"bufferView":5,"byteOffset":0,"componentType":5126,"count":980,"max":[12.157999992370605,2.418799777915352e-15,39.50199890136719],"min":[-1.465000033378601,-15,-13.012999534606934],"type":"VEC3"},{"bufferView":6,"byteOffset":0,"componentType":5126,"count":980,"type":"VEC3"},{"bufferView":7,"byteOffset":0,"componentType":5126,"count":980,"type":"VEC2"}],"bufferViews":[{"buffer":0,"byteOffset":0,"byteLength":9360,"target":34963},{"buffer":0,"byteOffset":9360,"byteLength":18744,"target":34962},{"buffer":0,"byteOffset":28104,"byteLength":18744,"target":34962},{"buffer":0,"byteOffset":46848,"byteLength":12496,"target":34962},{"buffer":0,"byteOffset":59344,"byteLength":5856,"target":34963},{"buffer":0,"byteOffset":65200,"byteLength":11760,"target":34962},{"buffer":0,"byteOffset":76960,"byteLength":11760,"target":34962},{"buffer":0,"byteOffset":88720,"byteLength":7840,"target":34962}],"scene":0,"scenes":[{"nodes":[0,1],"name":"dj"}],"extensionsUsed":["KHR_texture_transform"],"buffers":[{"byteLength":96560,"uri":"dj.bin"}]}