{"asset":{"version":"2.0","generator":"VECTARY"},"nodes":[{"translation":[-0.08871198582649231,0,0],"scale":[0.001,0.001,0.001],"rotation":[-0.7071067811865475,0,0,0.7071067811865476],"name":"3D Text - p","mesh":0},{"translation":[-0.05696149754524231,0,0],"scale":[0.001,0.001,0.001],"rotation":[-0.7071067811865475,0,0,0.7071067811865476],"name":"3D Text - h","mesh":1},{"translation":[-0.02611188817024231,0,0],"scale":[0.001,0.001,0.001],"rotation":[-0.7071067811865475,0,0,0.7071067811865476],"name":"3D Text - o","mesh":2},{"translation":[0.00537492823600769,0,0],"scale":[0.001,0.001,0.001],"rotation":[-0.7071067811865475,0,0,0.7071067811865476],"name":"3D Text - t","mesh":3},{"translation":[0.02607317042350769,0,0],"scale":[0.001,0.001,0.001],"rotation":[-0.7071067811865475,0,0,0.7071067811865476],"name":"3D Text - o","mesh":4},{"translation":[0.057559986829757694,0,0],"scale":[0.001,0.001,0.001],"rotation":[-0.7071067811865475,0,0,0.7071067811865476],"name":"3D Text - s","mesh":5}],"materials":[{"pbrMetallicRoughness":{"baseColorFactor":[0.00455975492252602,0.348864834082879,0.25902733248960613,1],"metallicFactor":0,"roughnessFactor":0.2},"name":"Distant Valley 1","emissiveFactor":[0,0,0],"extensions":{},"alphaMode":"OPAQUE","doubleSided":false}],"meshes":[{"primitives":[{"mode":4,"attributes":{"POSITION":1,"NORMAL":2,"TEXCOORD_0":3},"material":0,"indices":0}]},{"primitives":[{"mode":4,"attributes":{"POSITION":5,"NORMAL":6,"TEXCOORD_0":7},"material":0,"indices":4}]},{"primitives":[{"mode":4,"attributes":{"POSITION":9,"NORMAL":10,"TEXCOORD_0":11},"material":0,"indices":8}]},{"primitives":[{"mode":4,"attributes":{"POSITION":13,"NORMAL":14,"TEXCOORD_0":15},"material":0,"indices":12}]},{"primitives":[{"mode":4,"attributes":{"POSITION":9,"NORMAL":10,"TEXCOORD_0":11},"material":0,"indices":8}]},{"primitives":[{"mode":4,"attributes":{"POSITION":17,"NORMAL":18,"TEXCOORD_0":19},"material":0,"indices":16}]}],"accessors":[{"bufferView":0,"byteOffset":0,"componentType":5125,"count":2340,"type":"SCALAR"},{"bufferView":1,"byteOffset":0,"componentType":5126,"count":1560,"max":[33.42300033569336,1.7685124672757284e-15,28.881999969482422],"min":[3.441999912261963,-15,-13.012999534606934],"type":"VEC3"},{"bufferView":2,"byteOffset":0,"componentType":5126,"count":1560,"type":"VEC3"},{"bufferView":3,"byteOffset":0,"componentType":5126,"count":1560,"type":"VEC2"},{"bufferView":4,"byteOffset":0,"componentType":5125,"count":1740,"type":"SCALAR"},{"bufferView":5,"byteOffset":0,"componentType":5126,"count":1162,"max":[32.275001525878906,2.3619763608905605e-15,38.57400131225586],"min":[3.441999912261963,-15,-6.00600004196167],"type":"VEC3"},{"bufferView":6,"byteOffset":0,"componentType":5126,"count":1162,"type":"VEC3"},{"bufferView":7,"byteOffset":0,"componentType":5126,"count":1162,"type":"VEC2"},{"bufferView":8,"byteOffset":0,"componentType":5125,"count":2880,"type":"SCALAR"},{"bufferView":9,"byteOffset":0,"componentType":5126,"count":1920,"max":[33.22800064086914,1.7685124672757284e-15,28.881999969482422],"min":[1.7580000162124634,-15,-0.5619999766349792],"type":"VEC3"},{"bufferView":10,"byteOffset":0,"componentType":5126,"count":1920,"type":"VEC3"},{"bufferView":11,"byteOffset":0,"componentType":5126,"count":1920,"type":"VEC2"},{"bufferView":12,"byteOffset":0,"componentType":5125,"count":132,"type":"SCALAR"},{"bufferView":13,"byteOffset":0,"componentType":5126,"count":76,"max":[22.60700035095215,2.3619763608905605e-15,38.57400131225586],"min":[0.6589999794960022,-15,0],"type":"VEC3"},{"bufferView":14,"byteOffset":0,"componentType":5126,"count":76,"type":"VEC3"},{"bufferView":15,"byteOffset":0,"componentType":5126,"count":76,"type":"VEC2"},{"bufferView":16,"byteOffset":0,"componentType":5125,"count":3612,"type":"SCALAR"},{"bufferView":17,"byteOffset":0,"componentType":5126,"count":2410,"max":[27.709999084472656,1.7685124672757284e-15,28.881999969482422],"min":[1.659999966621399,-15,-0.5619999766349792],"type":"VEC3"},{"bufferView":18,"byteOffset":0,"componentType":5126,"count":2410,"type":"VEC3"},{"bufferView":19,"byteOffset":0,"componentType":5126,"count":2410,"type":"VEC2"}],"bufferViews":[{"buffer":0,"byteOffset":0,"byteLength":9360,"target":34963},{"buffer":0,"byteOffset":9360,"byteLength":18720,"target":34962},{"buffer":0,"byteOffset":28080,"byteLength":18720,"target":34962},{"buffer":0,"byteOffset":46800,"byteLength":12480,"target":34962},{"buffer":0,"byteOffset":59280,"byteLength":6960,"target":34963},{"buffer":0,"byteOffset":66240,"byteLength":13944,"target":34962},{"buffer":0,"byteOffset":80184,"byteLength":13944,"target":34962},{"buffer":0,"byteOffset":94128,"byteLength":9296,"target":34962},{"buffer":0,"byteOffset":103424,"byteLength":11520,"target":34963},{"buffer":0,"byteOffset":114944,"byteLength":23040,"target":34962},{"buffer":0,"byteOffset":137984,"byteLength":23040,"target":34962},{"buffer":0,"byteOffset":161024,"byteLength":15360,"target":34962},{"buffer":0,"byteOffset":176384,"byteLength":528,"target":34963},{"buffer":0,"byteOffset":176912,"byteLength":912,"target":34962},{"buffer":0,"byteOffset":177824,"byteLength":912,"target":34962},{"buffer":0,"byteOffset":178736,"byteLength":608,"target":34962},{"buffer":0,"byteOffset":179344,"byteLength":14448,"target":34963},{"buffer":0,"byteOffset":193792,"byteLength":28920,"target":34962},{"buffer":0,"byteOffset":222712,"byteLength":28920,"target":34962},{"buffer":0,"byteOffset":251632,"byteLength":19280,"target":34962}],"scene":0,"scenes":[{"nodes":[0,1,2,3,4,5],"name":"photos"}],"extensionsUsed":["KHR_texture_transform"],"buffers":[{"byteLength":270912,"uri":"photos.bin"}]}