{"asset":{"version":"2.0","generator":"VECTARY"},"nodes":[{"translation":[-0.055248739033937455,0,0],"scale":[0.001,0.001,0.001],"rotation":[-0.7071067811865475,0,0,0.7071067811865476],"name":"3D Text - t","mesh":0},{"translation":[-0.034550496846437455,0,0],"scale":[0.001,0.001,0.001],"rotation":[-0.7071067811865475,0,0,0.7071067811865476],"name":"3D Text - e","mesh":1},{"translation":[-0.005502645283937455,0,0],"scale":[0.001,0.001,0.001],"rotation":[-0.7071067811865475,0,0,0.7071067811865476],"name":"3D Text - c","mesh":2},{"translation":[0.022314737528562546,0,0],"scale":[0.001,0.001,0.001],"rotation":[-0.7071067811865475,0,0,0.7071067811865476],"name":"3D Text - h","mesh":3}],"materials":[{"pbrMetallicRoughness":{"baseColorFactor":[0.00455975492252602,0.348864834082879,0.25902733248960613,1],"metallicFactor":0,"roughnessFactor":0.2},"name":"Distant Valley 1","emissiveFactor":[0,0,0],"extensions":{},"alphaMode":"OPAQUE","doubleSided":false}],"meshes":[{"primitives":[{"mode":4,"attributes":{"POSITION":1,"NORMAL":2,"TEXCOORD_0":3},"material":0,"indices":0}]},{"primitives":[{"mode":4,"attributes":{"POSITION":5,"NORMAL":6,"TEXCOORD_0":7},"material":0,"indices":4}]},{"primitives":[{"mode":4,"attributes":{"POSITION":9,"NORMAL":10,"TEXCOORD_0":11},"material":0,"indices":8}]},{"primitives":[{"mode":4,"attributes":{"POSITION":13,"NORMAL":14,"TEXCOORD_0":15},"material":0,"indices":12}]}],"accessors":[{"bufferView":0,"byteOffset":0,"componentType":5125,"count":132,"type":"SCALAR"},{"bufferView":1,"byteOffset":0,"componentType":5126,"count":76,"max":[22.60700035095215,2.3619763608905605e-15,38.57400131225586],"min":[0.6589999794960022,-15,0],"type":"VEC3"},{"bufferView":2,"byteOffset":0,"componentType":5126,"count":76,"type":"VEC3"},{"bufferView":3,"byteOffset":0,"componentType":5126,"count":76,"type":"VEC2"},{"bufferView":4,"byteOffset":0,"componentType":5125,"count":3132,"type":"SCALAR"},{"bufferView":5,"byteOffset":0,"componentType":5126,"count":2080,"max":[30.56599998474121,1.7685124672757284e-15,28.881999969482422],"min":[1.8070000410079956,-15,-0.5619999766349792],"type":"VEC3"},{"bufferView":6,"byteOffset":0,"componentType":5126,"count":2080,"type":"VEC3"},{"bufferView":7,"byteOffset":0,"componentType":5126,"count":2080,"type":"VEC2"},{"bufferView":8,"byteOffset":0,"componentType":5125,"count":2052,"type":"SCALAR"},{"bufferView":9,"byteOffset":0,"componentType":5126,"count":1370,"max":[29.468000411987305,1.7685124672757284e-15,28.881999969482422],"min":[1.8070000410079956,-15,-0.5619999766349792],"type":"VEC3"},{"bufferView":10,"byteOffset":0,"componentType":5126,"count":1370,"type":"VEC3"},{"bufferView":11,"byteOffset":0,"componentType":5126,"count":1370,"type":"VEC2"},{"bufferView":12,"byteOffset":0,"componentType":5125,"count":1740,"type":"SCALAR"},{"bufferView":13,"byteOffset":0,"componentType":5126,"count":1162,"max":[32.275001525878906,2.3619763608905605e-15,38.57400131225586],"min":[3.441999912261963,-15,-6.00600004196167],"type":"VEC3"},{"bufferView":14,"byteOffset":0,"componentType":5126,"count":1162,"type":"VEC3"},{"bufferView":15,"byteOffset":0,"componentType":5126,"count":1162,"type":"VEC2"}],"bufferViews":[{"buffer":0,"byteOffset":0,"byteLength":528,"target":34963},{"buffer":0,"byteOffset":528,"byteLength":912,"target":34962},{"buffer":0,"byteOffset":1440,"byteLength":912,"target":34962},{"buffer":0,"byteOffset":2352,"byteLength":608,"target":34962},{"buffer":0,"byteOffset":2960,"byteLength":12528,"target":34963},{"buffer":0,"byteOffset":15488,"byteLength":24960,"target":34962},{"buffer":0,"byteOffset":40448,"byteLength":24960,"target":34962},{"buffer":0,"byteOffset":65408,"byteLength":16640,"target":34962},{"buffer":0,"byteOffset":82048,"byteLength":8208,"target":34963},{"buffer":0,"byteOffset":90256,"byteLength":16440,"target":34962},{"buffer":0,"byteOffset":106696,"byteLength":16440,"target":34962},{"buffer":0,"byteOffset":123136,"byteLength":10960,"target":34962},{"buffer":0,"byteOffset":134096,"byteLength":6960,"target":34963},{"buffer":0,"byteOffset":141056,"byteLength":13944,"target":34962},{"buffer":0,"byteOffset":155000,"byteLength":13944,"target":34962},{"buffer":0,"byteOffset":168944,"byteLength":9296,"target":34962}],"scene":0,"scenes":[{"nodes":[0,1,2,3],"name":"tech"}],"extensionsUsed":["KHR_texture_transform"],"buffers":[{"byteLength":178240,"uri":"tech.bin"}]}