{"asset":{"version":"2.0","generator":"VECTARY"},"nodes":[{"translation":[-0.09659295558929444,0,0],"scale":[0.001,0.001,0.001],"rotation":[-0.7071067811865475,0,0,0.7071067811865476],"name":"3D Text - H","mesh":0},{"translation":[-0.06042596340179444,0,0],"scale":[0.001,0.001,0.001],"rotation":[-0.7071067811865475,0,0,0.7071067811865476],"name":"3D Text - U","mesh":1},{"translation":[-0.024610533714294433,0,0],"scale":[0.001,0.001,0.001],"rotation":[-0.7071067811865475,0,0,0.7071067811865476],"name":"3D Text - N","mesh":2},{"translation":[0.011468567848205567,0,0],"scale":[0.001,0.001,0.001],"rotation":[-0.7071067811865475,0,0,0.7071067811865476],"name":"3D Text - D","mesh":3},{"translation":[0.047503724098205566,0,0],"scale":[0.001,0.001,0.001],"rotation":[-0.7071067811865475,0,0,0.7071067811865476],"name":"3D Text - I","mesh":4},{"translation":[0.06338995456695556,0,0],"scale":[0.001,0.001,0.001],"rotation":[-0.7071067811865475,0,0,0.7071067811865476],"name":"3D Text - E","mesh":5},{"translation":[-0.14853631496429442,0.0626525528,7.105427357601002e-18],"scale":[0.001,0.001,0.001],"rotation":[-0.7071067811865475,0,0,0.7071067811865476],"name":"3D Text - N","mesh":6},{"translation":[-0.11245721340179443,0.0626525528,7.105427357601002e-18],"scale":[0.001,0.001,0.001],"rotation":[-0.7071067811865475,0,0,0.7071067811865476],"name":"3D Text - A","mesh":7},{"translation":[-0.07666375637054444,0.0626525528,7.105427357601002e-18],"scale":[0.001,0.001,0.001],"rotation":[-0.7071067811865475,0,0,0.7071067811865476],"name":"3D Text - T","mesh":8},{"translation":[-0.04895623683929443,0.0626525528,7.105427357601002e-18],"scale":[0.001,0.001,0.001],"rotation":[-0.7071067811865475,0,0,0.7071067811865476],"name":"3D Text - H","mesh":9},{"translation":[-0.012789244651794434,0.0626525528,7.105427357601002e-18],"scale":[0.001,0.001,0.001],"rotation":[-0.7071067811865475,0,0,0.7071067811865476],"name":"3D Text - E","mesh":10},{"translation":[0.015335755348205566,0.0626525528,7.105427357601002e-18],"scale":[0.001,0.001,0.001],"rotation":[-0.7071067811865475,0,0,0.7071067811865476],"name":"3D Text - N","mesh":11},{"translation":[0.05141485691070557,0.0626525528,7.105427357601002e-18],"scale":[0.001,0.001,0.001],"rotation":[-0.7071067811865475,0,0,0.7071067811865476],"name":"3D Text - A","mesh":12},{"translation":[0.08720831394195556,0.0626525528,7.105427357601002e-18],"scale":[0.001,0.001,0.001],"rotation":[-0.7071067811865475,0,0,0.7071067811865476],"name":"3D Text - E","mesh":13},{"translation":[0.11533331394195556,0.0626525528,7.105427357601002e-18],"scale":[0.001,0.001,0.001],"rotation":[-0.7071067811865475,0,0,0.7071067811865476],"name":"3D Text - L","mesh":14}],"materials":[{"pbrMetallicRoughness":{"baseColorFactor":[0.00455975492252602,0.348864834082879,0.25902733248960613,1],"metallicFactor":0,"roughnessFactor":0.2},"name":"Distant Valley 1","emissiveFactor":[0,0,0],"extensions":{},"alphaMode":"OPAQUE","doubleSided":false}],"meshes":[{"primitives":[{"mode":4,"attributes":{"POSITION":1,"NORMAL":2,"TEXCOORD_0":3},"material":0,"indices":0}]},{"primitives":[{"mode":4,"attributes":{"POSITION":5,"NORMAL":6,"TEXCOORD_0":7},"material":0,"indices":4}]},{"primitives":[{"mode":4,"attributes":{"POSITION":9,"NORMAL":10,"TEXCOORD_0":11},"material":0,"indices":8}]},{"primitives":[{"mode":4,"attributes":{"POSITION":13,"NORMAL":14,"TEXCOORD_0":15},"material":0,"indices":12}]},{"primitives":[{"mode":4,"attributes":{"POSITION":17,"NORMAL":18,"TEXCOORD_0":19},"material":0,"indices":16}]},{"primitives":[{"mode":4,"attributes":{"POSITION":21,"NORMAL":22,"TEXCOORD_0":23},"material":0,"indices":20}]},{"primitives":[{"mode":4,"attributes":{"POSITION":9,"NORMAL":10,"TEXCOORD_0":11},"material":0,"indices":8}]},{"primitives":[{"mode":4,"attributes":{"POSITION":25,"NORMAL":26,"TEXCOORD_0":27},"material":0,"indices":24}]},{"primitives":[{"mode":4,"attributes":{"POSITION":29,"NORMAL":30,"TEXCOORD_0":31},"material":0,"indices":28}]},{"primitives":[{"mode":4,"attributes":{"POSITION":1,"NORMAL":2,"TEXCOORD_0":3},"material":0,"indices":0}]},{"primitives":[{"mode":4,"attributes":{"POSITION":21,"NORMAL":22,"TEXCOORD_0":23},"material":0,"indices":20}]},{"primitives":[{"mode":4,"attributes":{"POSITION":9,"NORMAL":10,"TEXCOORD_0":11},"material":0,"indices":8}]},{"primitives":[{"mode":4,"attributes":{"POSITION":25,"NORMAL":26,"TEXCOORD_0":27},"material":0,"indices":24}]},{"primitives":[{"mode":4,"attributes":{"POSITION":21,"NORMAL":22,"TEXCOORD_0":23},"material":0,"indices":20}]},{"primitives":[{"mode":4,"attributes":{"POSITION":33,"NORMAL":34,"TEXCOORD_0":35},"material":0,"indices":32}]}],"accessors":[{"bufferView":0,"byteOffset":0,"componentType":5125,"count":132,"type":"SCALAR"},{"bufferView":1,"byteOffset":0,"componentType":5126,"count":88,"max":[36.20600128173828,2.1526840487446795e-15,35.15599822998047],"min":[3.9790000915527344,-15,0],"type":"VEC3"},{"bufferView":2,"byteOffset":0,"componentType":5126,"count":88,"type":"VEC3"},{"bufferView":3,"byteOffset":0,"componentType":5126,"count":88,"type":"VEC2"},{"bufferView":4,"byteOffset":0,"componentType":5125,"count":1848,"type":"SCALAR"},{"bufferView":5,"byteOffset":0,"componentType":5126,"count":1234,"max":[36.22999954223633,2.1526840487446795e-15,35.15599822998047],"min":[2.3440001010894775,-15,-0.7570000290870667],"type":"VEC3"},{"bufferView":6,"byteOffset":0,"componentType":5126,"count":1234,"type":"VEC3"},{"bufferView":7,"byteOffset":0,"componentType":5126,"count":1234,"type":"VEC2"},{"bufferView":8,"byteOffset":0,"componentType":5125,"count":108,"type":"SCALAR"},{"bufferView":9,"byteOffset":0,"componentType":5126,"count":73,"max":[36.108001708984375,2.1526840487446795e-15,35.15599822998047],"min":[3.9790000915527344,-15,0],"type":"VEC3"},{"bufferView":10,"byteOffset":0,"componentType":5126,"count":73,"type":"VEC3"},{"bufferView":11,"byteOffset":0,"componentType":5126,"count":73,"type":"VEC2"},{"bufferView":12,"byteOffset":0,"componentType":5125,"count":1272,"type":"SCALAR"},{"bufferView":13,"byteOffset":0,"componentType":5126,"count":846,"max":[38.0620002746582,2.1526840487446795e-15,35.15599822998047],"min":[3.9790000915527344,-15,0],"type":"VEC3"},{"bufferView":14,"byteOffset":0,"componentType":5126,"count":846,"type":"VEC3"},{"bufferView":15,"byteOffset":0,"componentType":5126,"count":846,"type":"VEC2"},{"bufferView":16,"byteOffset":0,"componentType":5125,"count":36,"type":"SCALAR"},{"bufferView":17,"byteOffset":0,"componentType":5126,"count":24,"max":[13.67199993133545,2.1526840487446795e-15,35.15599822998047],"min":[3.9790000915527344,-15,0],"type":"VEC3"},{"bufferView":18,"byteOffset":0,"componentType":5126,"count":24,"type":"VEC3"},{"bufferView":19,"byteOffset":0,"componentType":5126,"count":24,"type":"VEC2"},{"bufferView":20,"byteOffset":0,"componentType":5125,"count":132,"type":"SCALAR"},{"bufferView":21,"byteOffset":0,"componentType":5126,"count":84,"max":[29.224000930786133,2.1526840487446795e-15,35.15599822998047],"min":[3.9790000915527344,-15,0],"type":"VEC3"},{"bufferView":22,"byteOffset":0,"componentType":5126,"count":84,"type":"VEC3"},{"bufferView":23,"byteOffset":0,"componentType":5126,"count":84,"type":"VEC2"},{"bufferView":24,"byteOffset":0,"componentType":5125,"count":2136,"type":"SCALAR"},{"bufferView":25,"byteOffset":0,"componentType":5126,"count":1423,"max":[37.45100021362305,2.199036867991987e-15,35.91299819946289],"min":[3.563999891281128,-15,-7.4710001945495605],"type":"VEC3"},{"bufferView":26,"byteOffset":0,"componentType":5126,"count":1423,"type":"VEC3"},{"bufferView":27,"byteOffset":0,"componentType":5126,"count":1423,"type":"VEC2"},{"bufferView":28,"byteOffset":0,"componentType":5125,"count":84,"type":"SCALAR"},{"bufferView":29,"byteOffset":0,"componentType":5126,"count":50,"max":[29.809999465942383,2.1526840487446795e-15,35.15599822998047],"min":[0.9769999980926514,-15,0],"type":"VEC3"},{"bufferView":30,"byteOffset":0,"componentType":5126,"count":50,"type":"VEC3"},{"bufferView":31,"byteOffset":0,"componentType":5126,"count":50,"type":"VEC2"},{"bufferView":32,"byteOffset":0,"componentType":5125,"count":60,"type":"SCALAR"},{"bufferView":33,"byteOffset":0,"componentType":5126,"count":40,"max":[29.224000930786133,2.1526840487446795e-15,35.15599822998047],"min":[3.9790000915527344,-15,0],"type":"VEC3"},{"bufferView":34,"byteOffset":0,"componentType":5126,"count":40,"type":"VEC3"},{"bufferView":35,"byteOffset":0,"componentType":5126,"count":40,"type":"VEC2"}],"bufferViews":[{"buffer":0,"byteOffset":0,"byteLength":528,"target":34963},{"buffer":0,"byteOffset":528,"byteLength":1056,"target":34962},{"buffer":0,"byteOffset":1584,"byteLength":1056,"target":34962},{"buffer":0,"byteOffset":2640,"byteLength":704,"target":34962},{"buffer":0,"byteOffset":3344,"byteLength":7392,"target":34963},{"buffer":0,"byteOffset":10736,"byteLength":14808,"target":34962},{"buffer":0,"byteOffset":25544,"byteLength":14808,"target":34962},{"buffer":0,"byteOffset":40352,"byteLength":9872,"target":34962},{"buffer":0,"byteOffset":50224,"byteLength":432,"target":34963},{"buffer":0,"byteOffset":50656,"byteLength":876,"target":34962},{"buffer":0,"byteOffset":51532,"byteLength":876,"target":34962},{"buffer":0,"byteOffset":52408,"byteLength":584,"target":34962},{"buffer":0,"byteOffset":52992,"byteLength":5088,"target":34963},{"buffer":0,"byteOffset":58080,"byteLength":10152,"target":34962},{"buffer":0,"byteOffset":68232,"byteLength":10152,"target":34962},{"buffer":0,"byteOffset":78384,"byteLength":6768,"target":34962},{"buffer":0,"byteOffset":85152,"byteLength":144,"target":34963},{"buffer":0,"byteOffset":85296,"byteLength":288,"target":34962},{"buffer":0,"byteOffset":85584,"byteLength":288,"target":34962},{"buffer":0,"byteOffset":85872,"byteLength":192,"target":34962},{"buffer":0,"byteOffset":86064,"byteLength":528,"target":34963},{"buffer":0,"byteOffset":86592,"byteLength":1008,"target":34962},{"buffer":0,"byteOffset":87600,"byteLength":1008,"target":34962},{"buffer":0,"byteOffset":88608,"byteLength":672,"target":34962},{"buffer":0,"byteOffset":89280,"byteLength":8544,"target":34963},{"buffer":0,"byteOffset":97824,"byteLength":17076,"target":34962},{"buffer":0,"byteOffset":114900,"byteLength":17076,"target":34962},{"buffer":0,"byteOffset":131976,"byteLength":11384,"target":34962},{"buffer":0,"byteOffset":143360,"byteLength":336,"target":34963},{"buffer":0,"byteOffset":143696,"byteLength":600,"target":34962},{"buffer":0,"byteOffset":144296,"byteLength":600,"target":34962},{"buffer":0,"byteOffset":144896,"byteLength":400,"target":34962},{"buffer":0,"byteOffset":145296,"byteLength":240,"target":34963},{"buffer":0,"byteOffset":145536,"byteLength":480,"target":34962},{"buffer":0,"byteOffset":146016,"byteLength":480,"target":34962},{"buffer":0,"byteOffset":146496,"byteLength":320,"target":34962}],"scene":0,"scenes":[{"nodes":[0,1,2,3,4,5,6,7,8,9,10,11,12,13,14],"name":"greenName"}],"extensionsUsed":["KHR_texture_transform"],"buffers":[{"byteLength":146816,"uri":"greenName.bin"}]}