{
  "accessors": [
    {
      "bufferView": 1,
      "componentType": 5126,
      "count": 9524,
      "max": [
        0.49987003207206726,
        0.5,
        0.13861629366874695
      ],
      "min": [
        -0.4998954236507416,
        -0.5,
        -0.13861629366874695
      ],
      "type": "VEC3"
    },
    {
      "bufferView": 1,
      "byteOffset": 114288,
      "componentType": 5126,
      "count": 9524,
      "max": [
        1.0,
        1.0,
        1.0
      ],
      "min": [
        -1.0,
        -1.0,
        -1.0
      ],
      "type": "VEC3"
    },
    {
      "bufferView": 0,
      "componentType": 5125,
      "count": 56946,
      "type": "SCALAR"
    },
    {
      "bufferView": 1,
      "byteOffset": 228576,
      "componentType": 5126,
      "count": 4916,
      "max": [
        0.4987129867076874,
        0.5,
        0.4171368479728699
      ],
      "min": [
        -0.49951034784317017,
        -0.49957379698753357,
        -0.4171368479728699
      ],
      "type": "VEC3"
    },
    {
      "bufferView": 1,
      "byteOffset": 287568,
      "componentType": 5126,
      "count": 4916,
      "max": [
        0.9539132714271545,
        1.0,
        0.9999936819076538
      ],
      "min": [
        -0.9994687438011169,
        -0.9925893545150757,
        -0.9999936819076538
      ],
      "type": "VEC3"
    },
    {
      "bufferView": 0,
      "byteOffset": 227784,
      "componentType": 5125,
      "count": 29484,
      "type": "SCALAR"
    },
    {
      "bufferView": 1,
      "byteOffset": 346560,
      "componentType": 5126,
      "count": 4320,
      "max": [
        0.4999999701976776,
        0.49929818511009216,
        0.32409927248954773
      ],
      "min": [
        -0.49918967485427856,
        -0.5,
        -0.32409927248954773
      ],
      "type": "VEC3"
    },
    {
      "bufferView": 1,
      "byteOffset": 398400,
      "componentType": 5126,
      "count": 4320,
      "max": [
        0.9778863191604614,
        0.8944266438484192,
        0.9999606013298035
      ],
      "min": [
        -0.9999999403953552,
        -0.9925632476806641,
        -0.9999606013298035
      ],
      "type": "VEC3"
    },
    {
      "bufferView": 0,
      "byteOffset": 345720,
      "componentType": 5125,
      "count": 25902,
      "type": "SCALAR"
    },
    {
      "bufferView": 1,
      "byteOffset": 450240,
      "componentType": 5126,
      "count": 10576,
      "max": [
        0.5,
        0.4999999701976776,
        0.15283536911010742
      ],
      "min": [
        -0.5,
        -0.4999999701976776,
        -0.15283536911010742
      ],
      "type": "VEC3"
    },
    {
      "bufferView": 1,
      "byteOffset": 577152,
      "componentType": 5126,
      "count": 10576,
      "max": [
        0.9999719262123108,
        0.9999999403953552,
        0.9999994039535522
      ],
      "min": [
        -1.0,
        -0.9950834512710571,
        -0.9999994039535522
      ],
      "type": "VEC3"
    },
    {
      "bufferView": 0,
      "byteOffset": 449328,
      "componentType": 5125,
      "count": 63444,
      "type": "SCALAR"
    },
    {
      "bufferView": 1,
      "byteOffset": 704064,
      "componentType": 5126,
      "count": 8235,
      "max": [
        0.49999403953552246,
        0.4997633397579193,
        0.33272087574005127
      ],
      "min": [
        -0.4994719922542572,
        -0.4998524487018585,
        -0.33272087574005127
      ],
      "type": "VEC3"
    },
    {
      "bufferView": 1,
      "byteOffset": 802884,
      "componentType": 5126,
      "count": 8235,
      "max": [
        0.9986735582351685,
        0.9989993572235107,
        1.0
      ],
      "min": [
        -0.9994099140167236,
        -0.9981082677841187,
        -0.9999998807907104
      ],
      "type": "VEC3"
    },
    {
      "bufferView": 0,
      "byteOffset": 703104,
      "componentType": 5125,
      "count": 49398,
      "type": "SCALAR"
    },
    {
      "bufferView": 1,
      "byteOffset": 901704,
      "componentType": 5126,
      "count": 6282,
      "max": [
        0.4694216847419739,
        0.44519713521003723,
        0.1856183558702469
      ],
      "min": [
        -0.46547627449035645,
        -0.48189228773117065,
        -0.1856183558702469
      ],
      "type": "VEC3"
    },
    {
      "bufferView": 1,
      "byteOffset": 977088,
      "componentType": 5126,
      "count": 6282,
      "max": [
        0.9947907328605652,
        0.985302209854126,
        0.9999842643737793
      ],
      "min": [
        -0.9977092146873474,
        -0.9982098937034607,
        -0.9999842643737793
      ],
      "type": "VEC3"
    },
    {
      "bufferView": 0,
      "byteOffset": 900696,
      "componentType": 5125,
      "count": 37680,
      "type": "SCALAR"
    },
    {
      "bufferView": 1,
      "byteOffset": 1052472,
      "componentType": 5126,
      "count": 8838,
      "max": [
        0.49997594952583313,
        0.4999430477619171,
        0.35999172925949097
      ],
      "min": [
        -0.4998946189880371,
        -0.4999045133590698,
        -0.35999172925949097
      ],
      "type": "VEC3"
    },
    {
      "bufferView": 1,
      "byteOffset": 1158528,
      "componentType": 5126,
      "count": 8838,
      "max": [
        0.9998084902763367,
        0.9962086081504822,
        0.9999700784683228
      ],
      "min": [
        -0.9995907545089722,
        -0.9996370077133179,
        -0.9999700784683228
      ],
      "type": "VEC3"
    },
    {
      "bufferView": 0,
      "byteOffset": 1051416,
      "componentType": 5125,
      "count": 53016,
      "type": "SCALAR"
    },
    {
      "bufferView": 1,
      "byteOffset": 1264584,
      "componentType": 5126,
      "count": 5722,
      "max": [
        0.4825470745563507,
        0.4849933683872223,
        0.21982523798942566
      ],
      "min": [
        -0.4678894281387329,
        -0.4822466969490051,
        -0.21982523798942566
      ],
      "type": "VEC3"
    },
    {
      "bufferView": 1,
      "byteOffset": 1333248,
      "componentType": 5126,
      "count": 5722,
      "max": [
        0.9965540170669556,
        0.996812105178833,
        0.9999872446060181
      ],
      "min": [
        -0.9999998807907104,
        -0.9987189769744873,
        -0.9999872446060181
      ],
      "type": "VEC3"
    },
    {
      "bufferView": 0,
      "byteOffset": 1263480,
      "componentType": 5125,
      "count": 34320,
      "type": "SCALAR"
    }
  ],
  "asset": {
    "extras": {
      "author": "aniandronic (https://sketchfab.com/aniandronic)",
      "license": "CC-BY-4.0 (http://creativecommons.org/licenses/by/4.0/)",
      "source": "https://sketchfab.com/3d-models/h-alphabet-lore-a8e844b734204d7e961a99b35738ceed",
      "title": "H (Alphabet Lore)"
    },
    "generator": "Sketchfab-14.35.0",
    "version": "2.0"
  },
  "bufferViews": [
    {
      "buffer": 0,
      "byteLength": 1400760,
      "name": "floatBufferViews",
      "target": 34963
    },
    {
      "buffer": 0,
      "byteLength": 1401912,
      "byteOffset": 1400760,
      "byteStride": 12,
      "name": "floatBufferViews",
      "target": 34962
    }
  ],
  "buffers": [
    {
      "byteLength": 2802672,
      "uri": "scene.bin"
    }
  ],
  "materials": [
    {
      "doubleSided": true,
      "name": "Material_68",
      "pbrMetallicRoughness": {
        "baseColorFactor": [
          0.745098,
          0.819608,
          0.768627,
          1.0
        ],
        "metallicFactor": 0.0
      }
    },
    {
      "doubleSided": true,
      "name": "Material_128",
      "pbrMetallicRoughness": {
        "metallicFactor": 0.0
      }
    },
    {
      "doubleSided": true,
      "name": "Material_132",
      "pbrMetallicRoughness": {
        "metallicFactor": 0.0
      }
    },
    {
      "doubleSided": true,
      "name": "Material_124",
      "pbrMetallicRoughness": {
        "baseColorFactor": [
          0.0,
          0.0,
          0.0,
          1.0
        ],
        "metallicFactor": 0.0
      }
    },
    {
      "doubleSided": true,
      "name": "Material_82",
      "pbrMetallicRoughness": {
        "baseColorFactor": [
          0.0,
          0.0,
          0.0,
          1.0
        ],
        "metallicFactor": 0.0
      }
    },
    {
      "doubleSided": true,
      "name": "Material_96",
      "pbrMetallicRoughness": {
        "metallicFactor": 0.0
      }
    },
    {
      "doubleSided": true,
      "name": "Material_78",
      "pbrMetallicRoughness": {
        "baseColorFactor": [
          0.0,
          0.0,
          0.0,
          1.0
        ],
        "metallicFactor": 0.0
      }
    },
    {
      "doubleSided": true,
      "name": "Material_114",
      "pbrMetallicRoughness": {
        "metallicFactor": 0.0
      }
    }
  ],
  "meshes": [
    {
      "name": "root_Material_68_0",
      "primitives": [
        {
          "attributes": {
            "NORMAL": 1,
            "POSITION": 0
          },
          "indices": 2,
          "material": 0,
          "mode": 4
        }
      ]
    },
    {
      "name": "root_Material_128_0",
      "primitives": [
        {
          "attributes": {
            "NORMAL": 4,
            "POSITION": 3
          },
          "indices": 5,
          "material": 1,
          "mode": 4
        }
      ]
    },
    {
      "name": "root_Material_132_0",
      "primitives": [
        {
          "attributes": {
            "NORMAL": 7,
            "POSITION": 6
          },
          "indices": 8,
          "material": 2,
          "mode": 4
        }
      ]
    },
    {
      "name": "root_Material_124_0",
      "primitives": [
        {
          "attributes": {
            "NORMAL": 10,
            "POSITION": 9
          },
          "indices": 11,
          "material": 3,
          "mode": 4
        }
      ]
    },
    {
      "name": "root_Material_82_0",
      "primitives": [
        {
          "attributes": {
            "NORMAL": 13,
            "POSITION": 12
          },
          "indices": 14,
          "material": 4,
          "mode": 4
        }
      ]
    },
    {
      "name": "root_Material_96_0",
      "primitives": [
        {
          "attributes": {
            "NORMAL": 16,
            "POSITION": 15
          },
          "indices": 17,
          "material": 5,
          "mode": 4
        }
      ]
    },
    {
      "name": "root_Material_78_0",
      "primitives": [
        {
          "attributes": {
            "NORMAL": 19,
            "POSITION": 18
          },
          "indices": 20,
          "material": 6,
          "mode": 4
        }
      ]
    },
    {
      "name": "root_Material_114_0",
      "primitives": [
        {
          "attributes": {
            "NORMAL": 22,
            "POSITION": 21
          },
          "indices": 23,
          "material": 7,
          "mode": 4
        }
      ]
    }
  ],
  "nodes": [
    {
      "children": [
        1
      ],
      "matrix": [
        1.0,
        0.0,
        0.0,
        0.0,
        0.0,
        2.220446049250313e-16,
        -1.0,
        0.0,
        0.0,
        1.0,
        2.220446049250313e-16,
        0.0,
        0.0,
        0.0,
        0.0,
        1.0
      ],
      "name": "Sketchfab_model"
    },
    {
      "children": [
        2
      ],
      "matrix": [
        0.009999999776482582,
        0.0,
        0.0,
        0.0,
        0.0,
        0.0,
        0.009999999776482582,
        0.0,
        0.0,
        -0.009999999776482582,
        0.0,
        0.0,
        0.0,
        0.0,
        0.0,
        1.0
      ],
      "name": "764f690cd8674aaf9b49217adbace5d2.fbx"
    },
    {
      "children": [
        3
      ],
      "name": "RootNode"
    },
    {
      "children": [
        4,
        7,
        10,
        13,
        16,
        19,
        22,
        25
      ],
      "name": "root"
    },
    {
      "children": [
        5
      ],
      "name": "root"
    },
    {
      "children": [
        6
      ],
      "matrix": [
        0.40808942914009094,
        0.0,
        -0.0,
        0.0,
        0.0,
        0.662112832069397,
        0.0,
        0.0,
        0.0,
        0.0,
        0.3310564160346985,
        0.0,
        -0.005207275506108999,
        -0.01144360564649105,
        0.2000136822462082,
        1.0
      ],
      "name": "Object_5"
    },
    {
      "mesh": 0,
      "name": "root_Material_68_0"
    },
    {
      "children": [
        8
      ],
      "name": "root"
    },
    {
      "children": [
        9
      ],
      "matrix": [
        0.05434665456414223,
        0.0,
        -0.0,
        0.0,
        0.0,
        0.055887896567583084,
        0.0,
        0.0,
        0.0,
        0.0,
        0.027943948283791542,
        0.0,
        0.021050721406936646,
        0.0011617736890912056,
        0.24333754181861877,
        1.0
      ],
      "name": "Object_8"
    },
    {
      "mesh": 1,
      "name": "root_Material_128_0"
    },
    {
      "children": [
        11
      ],
      "name": "root"
    },
    {
      "children": [
        12
      ],
      "matrix": [
        0.04983685165643692,
        0.0,
        -0.0,
        0.0,
        0.0,
        0.061629511415958405,
        0.0,
        0.0,
        0.0,
        0.0,
        0.033224474638700485,
        0.0,
        -0.06883243471384048,
        -0.020077073946595192,
        0.24334022402763367,
        1.0
      ],
      "name": "Object_11"
    },
    {
      "mesh": 2,
      "name": "root_Material_132_0"
    },
    {
      "children": [
        14
      ],
      "name": "root"
    },
    {
      "children": [
        15
      ],
      "matrix": [
        0.15556155145168304,
        0.0,
        -0.0,
        0.0,
        0.0,
        0.0725000724196434,
        0.0,
        0.0,
        0.0,
        0.0,
        0.07778077572584152,
        0.0,
        -0.005408020224422216,
        -0.013136276975274086,
        0.23707923293113708,
        1.0
      ],
      "name": "Object_14"
    },
    {
      "mesh": 3,
      "name": "root_Material_124_0"
    },
    {
      "children": [
        17
      ],
      "name": "root"
    },
    {
      "children": [
        18
      ],
      "matrix": [
        0.17634010314941406,
        0.0,
        -0.0,
        0.0,
        0.0,
        0.12330733239650726,
        0.0,
        0.0,
        0.0,
        0.0,
        0.08817005157470703,
        0.0,
        0.1598009169101715,
        0.02004413679242134,
        0.24019557237625122,
        1.0
      ],
      "name": "Object_17"
    },
    {
      "mesh": 4,
      "name": "root_Material_82_0"
    },
    {
      "children": [
        20
      ],
      "name": "root"
    },
    {
      "children": [
        21
      ],
      "matrix": [
        0.13289819657802582,
        0.0,
        -0.0,
        0.0,
        0.0,
        0.055887892842292786,
        0.0,
        0.0,
        0.0,
        0.0,
        0.06644909828901291,
        0.0,
        0.17088055610656738,
        0.024825692176818848,
        0.2704160213470459,
        1.0
      ],
      "name": "Object_20"
    },
    {
      "mesh": 5,
      "name": "root_Material_96_0"
    },
    {
      "children": [
        23
      ],
      "name": "root"
    },
    {
      "children": [
        24
      ],
      "matrix": [
        0.1726120114326477,
        0.0,
        -0.0,
        0.0,
        0.0,
        0.13071691989898682,
        0.0,
        0.0,
        0.0,
        0.0,
        0.08630600571632385,
        0.0,
        -0.18481726944446564,
        0.003989979159086943,
        0.24019557237625122,
        1.0
      ],
      "name": "Object_23"
    },
    {
      "mesh": 6,
      "name": "root_Material_78_0"
    },
    {
      "children": [
        26
      ],
      "name": "root"
    },
    {
      "children": [
        27
      ],
      "matrix": [
        0.11815860867500305,
        0.0,
        -0.0,
        0.0,
        0.0,
        0.05681772157549858,
        0.0,
        0.0,
        0.0,
        0.0,
        0.059079304337501526,
        0.0,
        -0.18835200369358063,
        0.00851388555020094,
        0.26239892840385437,
        1.0
      ],
      "name": "Object_26"
    },
    {
      "mesh": 7,
      "name": "root_Material_114_0"
    }
  ],
  "scene": 0,
  "scenes": [
    {
      "name": "Sketchfab_Scene",
      "nodes": [
        0
      ]
    }
  ]
}
